<?xml version="1.0" encoding="utf-8"?>
<!-- Generator: Adobe Illustrator 16.0.4, SVG Export Plug-In . SVG Version: 6.00 Build 0)  -->
<!DOCTYPE svg PUBLIC "-//W3C//DTD SVG 1.1//EN" "http://www.w3.org/Graphics/SVG/1.1/DTD/svg11.dtd">
<svg version="1.1" xmlns="http://www.w3.org/2000/svg" xmlns:xlink="http://www.w3.org/1999/xlink" x="0px" y="0px" width="604px"
	 height="142px" viewBox="0 0 604 142" enable-background="new 0 0 604 142" xml:space="preserve">
<g id="Layer_2">
</g>
<g id="Laag_1">
	<g>
		<g>
			<g>
				<polygon fill="#FFFFFF" points="74.823,61.861 11.868,88.412 11.868,106.297 74.823,80.598 137.778,106.297 137.778,88.412 				
					"/>
				<polygon fill="#FFFFFF" points="74.823,132.848 11.868,106.297 11.868,88.412 74.823,114.111 137.778,88.412 137.778,106.297 
									"/>
				<polygon fill="#FFFFFF" points="74.823,35.736 11.868,62.287 11.868,80.172 74.823,54.473 137.778,80.172 137.778,62.287 				
					"/>
				<polygon fill="#FFFFFF" points="74.823,106.723 11.868,80.172 11.868,62.287 74.823,87.986 137.778,62.287 137.778,80.172 				
					"/>
				<polygon fill="#FFFFFF" points="74.823,9.611 11.868,36.162 11.868,54.047 74.823,28.348 137.778,54.047 137.778,36.162 				"/>
				<polygon fill="#FFFFFF" points="74.823,80.598 11.868,54.047 11.868,36.162 74.823,61.861 137.778,36.162 137.778,54.047 				
					"/>
			</g>
		</g>
		<linearGradient id="SVGID_1_" gradientUnits="userSpaceOnUse" x1="12.6587" y1="98.2314" x2="74.4936" y2="123.2144">
			<stop  offset="0" style="stop-color:#DEEDC1"/>
			<stop  offset="1" style="stop-color:#ABC41E"/>
		</linearGradient>
		<polygon opacity="0.87" fill="url(#SVGID_1_)" points="74.823,114.111 11.868,88.412 11.868,106.297 74.823,132.848 		"/>
		<linearGradient id="SVGID_2_" gradientUnits="userSpaceOnUse" x1="74.5752" y1="123.4482" x2="137.2996" y2="98.1059">
			<stop  offset="0" style="stop-color:#1B9051"/>
			<stop  offset="0.2206" style="stop-color:#19894E"/>
			<stop  offset="0.5415" style="stop-color:#177647"/>
			<stop  offset="0.922" style="stop-color:#125A3C"/>
			<stop  offset="1" style="stop-color:#11543A"/>
		</linearGradient>
		<polygon opacity="0.87" fill="url(#SVGID_2_)" points="74.823,114.111 137.778,88.412 137.778,106.297 74.823,132.848 		"/>
		<linearGradient id="SVGID_3_" gradientUnits="userSpaceOnUse" x1="12.1406" y1="96.6865" x2="74.3938" y2="71.5346">
			<stop  offset="0" style="stop-color:#1A8A4F"/>
			<stop  offset="0.3278" style="stop-color:#53A53F"/>
			<stop  offset="0.6322" style="stop-color:#80BD2F"/>
			<stop  offset="0.8655" style="stop-color:#9DCC24"/>
			<stop  offset="1" style="stop-color:#A8D220"/>
		</linearGradient>
		<polygon opacity="0.87" fill="url(#SVGID_3_)" points="74.823,61.861 11.868,88.412 11.868,106.297 74.823,80.598 		"/>
		<linearGradient id="SVGID_4_" gradientUnits="userSpaceOnUse" x1="75.1665" y1="71.5" x2="137.4007" y2="96.6443">
			<stop  offset="0" style="stop-color:#83C35B"/>
			<stop  offset="1" style="stop-color:#1D6A35"/>
		</linearGradient>
		<polygon opacity="0.87" fill="url(#SVGID_4_)" points="74.823,61.861 137.778,88.412 137.778,106.297 74.823,80.598 		"/>
		<linearGradient id="SVGID_5_" gradientUnits="userSpaceOnUse" x1="12.6582" y1="72.1064" x2="74.4939" y2="97.0897">
			<stop  offset="0" style="stop-color:#F7A123"/>
			<stop  offset="1" style="stop-color:#EFDB13"/>
		</linearGradient>
		<polygon opacity="0.87" fill="url(#SVGID_5_)" points="74.823,87.986 11.868,62.287 11.868,80.172 74.823,106.723 		"/>
		<linearGradient id="SVGID_6_" gradientUnits="userSpaceOnUse" x1="74.5752" y1="97.3232" x2="137.2996" y2="71.9809">
			<stop  offset="0" style="stop-color:#781F27"/>
			<stop  offset="1" style="stop-color:#F6102D"/>
		</linearGradient>
		<polygon opacity="0.87" fill="url(#SVGID_6_)" points="74.823,87.986 137.778,62.287 137.778,80.172 74.823,106.723 		"/>
		<linearGradient id="SVGID_7_" gradientUnits="userSpaceOnUse" x1="12.1401" y1="70.5615" x2="74.3937" y2="45.4095">
			<stop  offset="0" style="stop-color:#83212A"/>
			<stop  offset="1" style="stop-color:#DD7613"/>
		</linearGradient>
		<polygon opacity="0.87" fill="url(#SVGID_7_)" points="74.823,35.736 11.868,62.287 11.868,80.172 74.823,54.473 		"/>
		<linearGradient id="SVGID_8_" gradientUnits="userSpaceOnUse" x1="75.167" y1="45.375" x2="137.4004" y2="70.5189">
			<stop  offset="0" style="stop-color:#F3CE96"/>
			<stop  offset="1" style="stop-color:#EB6A11"/>
		</linearGradient>
		<polygon opacity="0.87" fill="url(#SVGID_8_)" points="74.823,35.736 137.778,62.287 137.778,80.172 74.823,54.473 		"/>
		<linearGradient id="SVGID_9_" gradientUnits="userSpaceOnUse" x1="12.6592" y1="45.9819" x2="74.4941" y2="70.9649">
			<stop  offset="0" style="stop-color:#1FA2BF"/>
			<stop  offset="1" style="stop-color:#AEDCE0"/>
		</linearGradient>
		<polygon opacity="0.87" fill="url(#SVGID_9_)" points="74.823,61.861 11.868,36.162 11.868,54.047 74.823,80.598 		"/>
		<linearGradient id="SVGID_10_" gradientUnits="userSpaceOnUse" x1="74.5752" y1="71.1978" x2="137.2996" y2="45.8555">
			<stop  offset="0" style="stop-color:#82107E"/>
			<stop  offset="1" style="stop-color:#EE0D72"/>
		</linearGradient>
		<polygon opacity="0.87" fill="url(#SVGID_10_)" points="74.823,61.861 137.778,36.162 137.778,54.047 74.823,80.598 		"/>
		<linearGradient id="SVGID_11_" gradientUnits="userSpaceOnUse" x1="12.1401" y1="44.4365" x2="74.3937" y2="19.2845">
			<stop  offset="0.0023" style="stop-color:#2696BF"/>
			<stop  offset="0.1493" style="stop-color:#308EB7"/>
			<stop  offset="0.4223" style="stop-color:#4B7AA2"/>
			<stop  offset="0.7883" style="stop-color:#71577F"/>
			<stop  offset="1" style="stop-color:#863F69"/>
		</linearGradient>
		<polygon opacity="0.87" fill="url(#SVGID_11_)" points="74.823,9.611 11.868,36.162 11.868,54.047 74.823,28.348 		"/>
		<linearGradient id="SVGID_12_" gradientUnits="userSpaceOnUse" x1="75.167" y1="19.25" x2="137.4012" y2="44.3943">
			<stop  offset="0" style="stop-color:#C05F9F"/>
			<stop  offset="0.9997" style="stop-color:#8A2546"/>
		</linearGradient>
		<polygon opacity="0.87" fill="url(#SVGID_12_)" points="74.823,9.611 137.778,36.162 137.778,54.047 74.823,28.348 		"/>
	</g>
	<g>
		<path d="M217.851,48.627v7.332h-20.022v14.1h19.74v7.332h-19.74v20.657h-7.685v-49.42H217.851z"/>
		<path d="M239.211,48.698h7.685v34.545c0,2.774,0.872,4.865,2.618,6.275c1.746,1.41,3.87,2.115,6.37,2.115
			c2.501,0,4.646-0.705,6.44-2.115c1.793-1.41,2.69-3.501,2.69-6.275V48.698h7.685v34.545c0,3.525-0.839,6.51-2.516,8.954
			c-1.676,2.444-3.744,4.184-6.202,5.218c-2.458,1.033-5.156,1.551-8.097,1.551c-4.64,0-8.578-1.316-11.816-3.949
			c-3.238-2.631-4.856-6.556-4.856-11.773V48.698z"/>
		<path d="M325.291,90.716v7.332h-26.226v-49.35h7.685v42.018H325.291z"/>
		<path d="M372.103,90.716v7.332h-26.227v-49.35h7.685v42.018H372.103z"/>
		<path d="M398.014,61.599c-0.095,1.458,0.363,2.727,1.375,3.807c1.01,1.082,2.067,1.868,3.173,2.362
			c1.104,0.494,2.407,0.929,3.912,1.304c1.786,0.47,3.313,0.929,4.583,1.375c1.269,0.447,2.626,1.104,4.073,1.974
			c1.447,0.871,2.602,1.857,3.464,2.961c0.861,1.104,1.563,2.502,2.11,4.194c0.545,1.692,0.771,3.62,0.678,5.781
			c-0.228,4.418-1.941,7.826-5.142,10.223s-6.938,3.595-11.215,3.595c-3.479,0-6.732-0.977-9.765-2.926
			c-3.031-1.95-5.229-4.782-6.592-8.495l6.134-3.172c2.256,4.841,5.733,7.261,10.435,7.261c2.442,0.047,4.441-0.575,5.992-1.868
			c1.551-1.292,2.373-2.972,2.468-5.041c0.09-1.41-0.123-2.644-0.639-3.702c-0.515-1.057-1.312-1.915-2.394-2.573
			c-1.081-0.657-2.068-1.163-2.961-1.516c-0.894-0.353-1.998-0.693-3.313-1.022c-1.505-0.423-2.832-0.835-3.983-1.236
			c-1.152-0.401-2.421-1.003-3.807-1.806c-1.387-0.803-2.527-1.701-3.419-2.693c-0.894-0.992-1.634-2.279-2.221-3.862
			c-0.589-1.582-0.858-3.318-0.812-5.207c0.094-4.534,1.681-7.994,4.759-10.38c3.078-2.386,6.686-3.579,10.822-3.579
			c3.384,0,6.419,0.964,9.105,2.892c2.686,1.928,4.641,4.677,5.866,8.248l-6.121,2.89c-0.893-2.161-2.162-3.818-3.807-4.97
			c-1.646-1.151-3.361-1.727-5.146-1.727c-1.974-0.046-3.701,0.529-5.182,1.727C398.966,57.616,398.155,59.343,398.014,61.599z"/>
		<path d="M439.075,48.557h31.866v7.332h-12.056v42.159h-7.685V55.889h-12.126V48.557z"/>
		<path d="M482.997,98.048l17.694-49.703h8.602l17.132,49.703h-7.685l-5.594-14.734h-16.709l-4.91,14.734H482.997z M498.882,75.981
			h11.892l-4.584-14.1l-1.128-5.076h-0.354l-1.128,5.075L498.882,75.981z"/>
		<path d="M589.228,88.692l4.524,4.562l-5.429,5.287l-4.492-4.493c-4.263,3.325-9.206,4.987-14.827,4.987
			c-6.971,0-12.873-2.415-17.705-7.245c-4.834-4.831-7.25-10.921-7.25-18.273c0-7.351,2.375-13.465,7.125-18.345
			s10.693-7.32,17.83-7.32c7.136,0,13.127,2.433,17.973,7.299c4.845,4.867,7.269,10.99,7.269,18.371
			C594.245,79.703,592.572,84.76,589.228,88.692z M571.051,81.269l5.499-5.358l7.06,7.117c1.968-2.562,2.951-5.731,2.951-9.506
			c0-5.574-1.784-10.035-5.353-13.384c-3.569-3.349-7.685-5-12.347-4.954c-4.615,0-8.624,1.663-12.025,4.989
			s-5.103,7.775-5.103,13.347c0,5.571,1.699,9.996,5.096,13.271c3.397,3.276,7.409,4.913,12.034,4.913
			c3.161,0,6.37-0.999,9.626-2.997L571.051,81.269z"/>
	</g>
</g>
</svg>
