<svg version="1.1" id="Laag_1" xmlns="http://www.w3.org/2000/svg" x="0" y="0" viewBox="0 0 1470 434" style="enable-background:new 0 0 1470 434" xml:space="preserve"><style>.st0{fill:#1164f7}.st1{fill:#003553}.st2{fill:#29a4e2}</style><path class="st0" d="M280 199.4V278h49V172h-1.5zM314.9 138.9 199 72 69 147.1v.9l45.2 26.1v-.9l84.8-49 70.7 40.8z"/><path class="st1" d="M446.3 293c-15.7 0-31.9-3.7-46.2-8.1v-33.4c11.5 4.2 30 9.6 46.8 9.6 16.8 0 24.6-5.1 24.6-11.5 0-17.7-74.5-8.1-74.5-58.7 0-27 27.2-43 56.8-43 24.4 0 38.1 4.8 46.2 8.4v32c-8.7-4.2-23.8-9.8-40.6-9.8-13.2 0-24.1 4.5-24.1 13.2 0 16.9 73.9 7.3 73.9 55.1.1 31.3-24.8 46.2-62.9 46.2zM525 220.2c0-39.3 25.5-72.2 64.4-72.2 17.9 0 30.5 7.3 39.2 17.1v-14.6h37.2v190.8h-37.2v-65.2c-8.7 10.1-21.3 16.9-39.2 16.9-38.9 0-64.4-32.6-64.4-72.8zm38.3 0c0 18.5 9.5 37.9 31.4 37.9 13.7 0 28-10.1 33.9-20.5V203c-5.9-9.8-20.2-20.2-33.9-20.2-21.8.1-31.4 18.6-31.4 37.4zM759.9 148c41.2 0 68.6 27 71.7 72.8.3 4.2.3 11.2.3 15.5h-102c3.6 13.2 16.8 24.7 33.3 24.7 14.6 0 27.2-8.4 33-18.3l29.4 14.6C813.1 278.7 792.4 293 763 293c-47.3 0-73.9-32.6-73.9-72.8 0-39.3 32.7-72.2 70.8-72.2zm31.9 60.7c-1.4-14.6-12.6-28.4-30.2-28.4-18.2 0-29.1 12.9-32.2 28.4h62.4zM847.6 220.2c0-39.3 25.5-72.2 64.4-72.2 17.9 0 30.5 7.3 39.2 17.1V99.4h37.2v191.1h-37.2v-14.3C942.5 286 929.9 293 912 293c-39 0-64.4-32.6-64.4-72.8zm38.3 0c0 18.5 9.5 37.9 31.4 37.9 13.7 0 27.7-10.4 33.9-20.5V203c-5.9-10.4-20.2-20.2-33.9-20.2-21.9.1-31.4 18.6-31.4 37.4zM1057.9 150.6V232c0 21.4 10.6 25.9 20.7 25.9 12.3 0 22.4-4.8 30.5-14.6v-92.7h37.2v139.9h-37.2v-17.4c-10.1 11.5-24.4 19.9-43.4 19.9-26.6 0-46.5-19.9-46.5-45.8v-96.7h38.7zM1177.4 99.4h37.2v191.1h-37.2V99.4zM1309 148c41.2 0 68.6 27 71.7 72.8.3 4.2.3 11.2.3 15.5h-101.9c3.6 13.2 16.8 24.7 33.3 24.7 14.6 0 27.2-8.4 33-18.3l29.4 14.6c-12.6 21.4-33.3 35.7-62.7 35.7-47.3 0-73.9-32.6-73.9-72.8 0-39.3 32.8-72.2 70.8-72.2zm32 60.7c-1.4-14.6-12.6-28.4-30.2-28.4-18.2 0-29.1 12.9-32.2 28.4h62.4z"/><path class="st2" d="M69 147.1v52l130 75.1 130-75.1v-52l-130 75.1z"/><path style="fill:#61d3ff" d="M199 222.2v52l130-75.1v-52z"/><g><path class="st0" d="M69 234.9v52L199 362l130-75.1v-52L199 310z"/><path class="st2" d="M199 310v52l130-75.1v-52z"/></g></svg>